<?xml version="1.0"?>
<svg xmlns="http://www.w3.org/2000/svg" id="_x31_" enable-background="new 0 0 24 24" height="512px" viewBox="0 0 24 24" width="512px" class=""><g><g><path d="m18.5 24h-13c-1.378 0-2.5-1.122-2.5-2.5v-19c0-1.378 1.122-2.5 2.5-2.5h13c1.378 0 2.5 1.122 2.5 2.5v19c0 1.378-1.122 2.5-2.5 2.5zm-13-23c-.827 0-1.5.673-1.5 1.5v19c0 .827.673 1.5 1.5 1.5h13c.827 0 1.5-.673 1.5-1.5v-19c0-.827-.673-1.5-1.5-1.5z" data-original="#000000" class="active-path" data-old_color="#000000" fill="#FFFFFF"/></g><g><path d="m17.5 16h-11c-.276 0-.5-.224-.5-.5s.224-.5.5-.5h11c.276 0 .5.224.5.5s-.224.5-.5.5z" data-original="#000000" class="active-path" data-old_color="#000000" fill="#FFFFFF"/></g><g><path d="m17.5 20h-11c-.276 0-.5-.224-.5-.5s.224-.5.5-.5h11c.276 0 .5.224.5.5s-.224.5-.5.5z" data-original="#000000" class="active-path" data-old_color="#000000" fill="#FFFFFF"/></g><g><path d="m12 7c-1.103 0-2-.897-2-2s.897-2 2-2 2 .897 2 2-.897 2-2 2zm0-3c-.551 0-1 .449-1 1s.449 1 1 1 1-.449 1-1-.449-1-1-1z" data-original="#000000" class="active-path" data-old_color="#000000" fill="#FFFFFF"/></g><g><path d="m15.5 12c-.276 0-.5-.224-.5-.5v-1c0-.827-.673-1.5-1.5-1.5h-3c-.827 0-1.5.673-1.5 1.5v1c0 .276-.224.5-.5.5s-.5-.224-.5-.5v-1c0-1.378 1.122-2.5 2.5-2.5h3c1.378 0 2.5 1.122 2.5 2.5v1c0 .276-.224.5-.5.5z" data-original="#000000" class="active-path" data-old_color="#000000" fill="#FFFFFF"/></g></g> </svg>
